<svg width="20" height="20" viewBox="0 0 20 20" fill="none" xmlns="http://www.w3.org/2000/svg">
<g opacity="0.5">
<path d="M14.166 2.49992H17.4993C17.7204 2.49992 17.9323 2.58772 18.0886 2.744C18.2449 2.90028 18.3327 3.11224 18.3327 3.33325V16.6666C18.3327 16.8876 18.2449 17.0996 18.0886 17.2558C17.9323 17.4121 17.7204 17.4999 17.4993 17.4999H2.49935C2.27834 17.4999 2.06637 17.4121 1.91009 17.2558C1.75381 17.0996 1.66602 16.8876 1.66602 16.6666V3.33325C1.66602 3.11224 1.75381 2.90028 1.91009 2.744C2.06637 2.58772 2.27834 2.49992 2.49935 2.49992H5.83268V0.833252H7.49935V2.49992H12.4993V0.833252H14.166V2.49992ZM12.4993 4.16659H7.49935V5.83325H5.83268V4.16659H3.33268V7.49992H16.666V4.16659H14.166V5.83325H12.4993V4.16659ZM16.666 9.16658H3.33268V15.8333H16.666V9.16658Z" fill="black"/>
</g>
</svg>
