<svg width="20" height="20" viewBox="0 0 20 20" fill="none" xmlns="http://www.w3.org/2000/svg">
<g opacity="0.5">
<path d="M5.37852 15.8333L1.66602 18.75V3.33333C1.66602 3.11232 1.75381 2.90036 1.91009 2.74408C2.06637 2.5878 2.27834 2.5 2.49935 2.5H17.4993C17.7204 2.5 17.9323 2.5878 18.0886 2.74408C18.2449 2.90036 18.3327 3.11232 18.3327 3.33333V15C18.3327 15.221 18.2449 15.433 18.0886 15.5893C17.9323 15.7455 17.7204 15.8333 17.4993 15.8333H5.37852ZM4.80185 14.1667H16.666V4.16667H3.33268V15.3208L4.80185 14.1667ZM9.16602 8.33333H10.8327V10H9.16602V8.33333ZM5.83268 8.33333H7.49935V10H5.83268V8.33333ZM12.4993 8.33333H14.166V10H12.4993V8.33333Z" fill="black"/>
</g>
</svg>
