<svg width="36" height="36" viewBox="0 0 36 36" fill="none" xmlns="http://www.w3.org/2000/svg">
<path d="M13.5 4.5H22.5L25.5 7.5H31.5C31.8978 7.5 32.2794 7.65804 32.5607 7.93934C32.842 8.22064 33 8.60218 33 9V30C33 30.3978 32.842 30.7794 32.5607 31.0607C32.2794 31.342 31.8978 31.5 31.5 31.5H4.5C4.10218 31.5 3.72064 31.342 3.43934 31.0607C3.15804 30.7794 3 30.3978 3 30V9C3 8.60218 3.15804 8.22064 3.43934 7.93934C3.72064 7.65804 4.10218 7.5 4.5 7.5H10.5L13.5 4.5ZM18 28.5C20.3869 28.5 22.6761 27.5518 24.364 25.864C26.0518 24.1761 27 21.8869 27 19.5C27 17.1131 26.0518 14.8239 24.364 13.136C22.6761 11.4482 20.3869 10.5 18 10.5C15.6131 10.5 13.3239 11.4482 11.636 13.136C9.94821 14.8239 9 17.1131 9 19.5C9 21.8869 9.94821 24.1761 11.636 25.864C13.3239 27.5518 15.6131 28.5 18 28.5ZM18 25.5C16.4087 25.5 14.8826 24.8679 13.7574 23.7426C12.6321 22.6174 12 21.0913 12 19.5C12 17.9087 12.6321 16.3826 13.7574 15.2574C14.8826 14.1321 16.4087 13.5 18 13.5C19.5913 13.5 21.1174 14.1321 22.2426 15.2574C23.3679 16.3826 24 17.9087 24 19.5C24 21.0913 23.3679 22.6174 22.2426 23.7426C21.1174 24.8679 19.5913 25.5 18 25.5Z" fill="#404040"/>
</svg>
