<svg width="36" height="36" viewBox="0 0 36 36" fill="none" xmlns="http://www.w3.org/2000/svg">
<path d="M3 5.9895C3.00275 5.59557 3.16035 5.21853 3.43877 4.93983C3.71719 4.66113 4.09407 4.50314 4.488 4.5H31.512C32.334 4.5 33 5.1675 33 5.9895V30.0105C32.9973 30.4044 32.8396 30.7815 32.5612 31.0602C32.2828 31.3389 31.9059 31.4969 31.512 31.5H4.488C4.09322 31.4996 3.71475 31.3425 3.43573 31.0632C3.15672 30.7839 3 30.4053 3 30.0105V5.9895ZM15.933 12.6225C15.8427 12.5623 15.7378 12.5277 15.6294 12.5223C15.521 12.517 15.4132 12.5412 15.3175 12.5923C15.2217 12.6434 15.1416 12.7195 15.0857 12.8125C15.0298 12.9055 15.0002 13.012 15 13.1205V22.8795C15.0002 22.988 15.0298 23.0945 15.0857 23.1875C15.1416 23.2805 15.2217 23.3566 15.3175 23.4077C15.4132 23.4588 15.521 23.483 15.6294 23.4777C15.7378 23.4723 15.8427 23.4377 15.933 23.3775L23.2515 18.4995C23.3338 18.4447 23.4013 18.3705 23.448 18.2833C23.4947 18.1962 23.5191 18.0989 23.5191 18C23.5191 17.9011 23.4947 17.8038 23.448 17.7167C23.4013 17.6295 23.3338 17.5553 23.2515 17.5005L15.9315 12.6225H15.933Z" fill="#404040"/>
</svg>
